<svg width="600" height="800" xmlns="http://www.w3.org/2000/svg">
 <title>事情</title>
 <g id="Layer_1">
  <title>Layer 1</title>
  <rect stroke="#000" id="svg_142" height="799.99997" width="600.64934" y="-1.2987" x="-0.64936" opacity="NaN" stroke-width="0" fill="#DDDDDD"/>
  <rect stroke="#000" rx="10" id="svg_138" height="48.32534" width="443.30141" y="91.70655" x="74.72091" stroke-width="0" fill="#1c1a1a"/>
  <rect stroke="#000" id="svg_136" height="245.52289" width="68.42107" y="147.41399" x="435.72567" stroke-width="0" fill="#1c1a1a"/>
  <rect stroke="#000" id="svg_133" height="242.10526" width="63.1579" y="148.64434" x="438.11802" stroke-width="0" fill="#f7f2f2"/>
  <rect stroke="#000" rx="10" id="svg_132" height="45.45455" width="438.96102" y="93.07359" x="77.27275" stroke-width="0" fill="#f7f2f2"/>
  <rect id="svg_2" height="34.85714" width="45.71429" y="169.76336" x="156.68235" stroke="#000" fill="#fff"/>
  <rect stroke="#000" id="svg_4" height="10.94335" width="44.15076" y="160.02154" x="157.39958" fill="#fff"/>
  <rect id="svg_5" height="34.85714" width="45.71429" y="238.53519" x="157.03323" stroke="#000" fill="#fff"/>
  <rect stroke="#000" id="svg_6" height="10.94335" width="44.15076" y="228.79338" x="157.75046" fill="#fff"/>
  <rect id="svg_7" height="34.85714" width="45.71429" y="307.30703" x="156.68235" stroke="#000" fill="#fff"/>
  <rect stroke="#000" id="svg_8" height="10.94335" width="44.15076" y="297.56521" x="157.39958" fill="#fff"/>
  <rect id="svg_9" height="34.85714" width="45.71429" y="383.29278" x="156.68235" stroke="#000" fill="#fff"/>
  <rect stroke="#000" id="svg_10" height="10.94335" width="44.15076" y="373.55096" x="157.39958" fill="#fff"/>
  <rect id="svg_11" height="34.85714" width="45.71429" y="452.06461" x="157.03323" stroke="#000" fill="#fff"/>
  <rect stroke="#000" id="svg_12" height="10.94335" width="44.15076" y="442.3228" x="157.75046" fill="#fff"/>
  <rect id="svg_13" height="34.85714" width="45.71429" y="520.1871" x="156.68235" stroke="#000" fill="#fff"/>
  <rect stroke="#000" id="svg_14" height="10.94335" width="44.15076" y="511.09463" x="157.39958" fill="#fff"/>
  <rect id="svg_15" height="34.85714" width="45.71429" y="170.93983" x="253.74117" stroke="#000" fill="#fff"/>
  <rect stroke="#000" id="svg_16" height="10.94335" width="44.15076" y="161.19801" x="254.45841" fill="#fff"/>
  <rect id="svg_17" height="34.85714" width="45.71429" y="239.71167" x="254.09205" stroke="#000" fill="#fff"/>
  <rect stroke="#000" id="svg_18" height="10.94335" width="44.15076" y="229.96985" x="254.80928" fill="#fff"/>
  <rect id="svg_19" height="34.85714" width="45.71429" y="308.4835" x="253.74117" stroke="#000" fill="#fff"/>
  <rect stroke="#000" id="svg_20" height="10.94335" width="44.15076" y="298.74168" x="254.45841" fill="#fff"/>
  <rect id="svg_21" height="34.85714" width="45.71429" y="384.46925" x="253.74117" stroke="#000" fill="#fff"/>
  <rect stroke="#000" id="svg_22" height="10.94335" width="44.15076" y="374.72743" x="254.45841" fill="#fff"/>
  <rect id="svg_23" height="34.85714" width="45.71429" y="453.24108" x="254.09205" stroke="#000" fill="#fff"/>
  <rect stroke="#000" id="svg_24" height="10.94335" width="44.15076" y="443.49927" x="254.80928" fill="#fff"/>
  <rect id="svg_27" height="34.85714" width="45.71429" y="170.93983" x="347.27059" stroke="#000" fill="#fff"/>
  <rect stroke="#000" id="svg_28" height="10.94335" width="44.15076" y="161.19801" x="347.98783" fill="#fff"/>
  <rect id="svg_29" height="34.85714" width="45.71429" y="239.71167" x="347.62147" stroke="#000" fill="#fff"/>
  <rect stroke="#000" id="svg_30" height="10.94335" width="44.15076" y="229.96985" x="348.3387" fill="#fff"/>
  <rect id="svg_31" height="34.85714" width="45.71429" y="308.4835" x="347.27059" stroke="#000" fill="#fff"/>
  <rect stroke="#000" id="svg_32" height="10.94335" width="44.15076" y="298.74168" x="347.98783" fill="#fff"/>
  <rect id="svg_33" height="34.85714" width="45.71429" y="384.46925" x="347.27059" stroke="#000" fill="#fff"/>
  <rect stroke="#000" id="svg_34" height="10.94335" width="44.15076" y="374.72743" x="347.98783" fill="#fff"/>
  <rect id="svg_35" height="34.85714" width="45.71429" y="453.24108" x="347.62147" stroke="#000" fill="#fff"/>
  <rect stroke="#000" id="svg_36" height="10.94335" width="44.15076" y="443.49927" x="348.3387" fill="#fff"/>
  <rect id="svg_37" height="34.85714" width="45.71429" y="521.36357" x="347.27059" stroke="#000" fill="#fff"/>
  <rect stroke="#000" id="svg_38" height="10.94335" width="44.15076" y="512.2711" x="347.98783" fill="#fff"/>
  <rect id="svg_39" height="34.85714" width="45.71429" y="169.76336" x="444.3294" stroke="#000" fill="#fff"/>
  <rect stroke="#000" id="svg_40" height="10.94335" width="44.15076" y="160.02154" x="445.04663" fill="#fff"/>
  <rect id="svg_41" height="34.85714" width="45.71429" y="238.53519" x="444.68028" stroke="#000" fill="#fff"/>
  <rect stroke="#000" id="svg_42" height="10.94335" width="44.15076" y="228.79338" x="445.39751" fill="#fff"/>
  <rect id="svg_43" height="34.85714" width="45.71429" y="307.30703" x="444.3294" stroke="#000" fill="#fff"/>
  <rect stroke="#000" id="svg_44" height="10.94335" width="44.15076" y="297.56521" x="445.04663" fill="#fff"/>
  <path id="svg_52" d="m209.86804,188.52608c0,-3.99908 -8.69095,-7.24098 -19.41177,-7.24098l0,-5.79278l0,0c10.72082,0 19.41177,3.2419 19.41177,7.24098l0,5.79278c0,3.30187 -5.98817,6.18558 -14.55882,7.01105l0,2.89639l-4.85294,-5.56285l4.85294,-6.02271l0,2.89639l0,0c5.77926,-0.55662 10.55072,-2.07406 12.93824,-4.11466" stroke="#000" fill="#fff"/>
  <path id="svg_55" d="m208.10334,257.34961c0,-3.99907 -8.69094,-7.24097 -19.41176,-7.24097l0,-5.79279l0,0c10.72082,0 19.41176,3.2419 19.41176,7.24098l0,5.79278c0,3.30188 -5.98817,6.18558 -14.55882,7.01105l0,2.89639l-4.85294,-5.56285l4.85294,-6.02271l0,2.89639l0,0c5.77926,-0.55662 10.55072,-2.07406 12.93824,-4.11466" stroke="#000" fill="#fff"/>
  <path id="svg_56" d="m308.10334,190.29078c0,-3.99907 -8.69094,-7.24097 -19.41176,-7.24097l0,-5.79279l0,0c10.72082,0 19.41176,3.2419 19.41176,7.24098l0,5.79278c0,3.30188 -5.98817,6.18558 -14.55882,7.01105l0,2.89639l-4.85294,-5.56285l4.85294,-6.02271l0,2.89639l0,0c5.77926,-0.55662 10.55072,-2.07406 12.93824,-4.11466" stroke="#000" fill="#fff"/>
  <path id="svg_57" d="m305.16216,257.34961c0,-3.99907 -8.69094,-7.24097 -19.41176,-7.24097l0,-5.79279l0,0c10.72082,0 19.41176,3.2419 19.41176,7.24098l0,5.79278c0,3.30188 -5.98817,6.18558 -14.55882,7.01105l0,2.89639l-4.85294,-5.56285l4.85294,-6.02271l0,2.89639l0,0c5.77926,-0.55662 10.55072,-2.07406 12.93824,-4.11466" stroke="#000" fill="#fff"/>
  <path id="svg_58" d="m402.22098,258.52608c0,-3.99907 -8.69094,-7.24097 -19.41176,-7.24097l0,-5.79279l0,0c10.72082,0 19.41176,3.2419 19.41176,7.24098l0,5.79278c0,3.30188 -5.98817,6.18558 -14.55882,7.01105l0,2.89639l-4.85294,-5.56285l4.85294,-6.02271l0,2.89639l0,0c5.77926,-0.55662 10.55072,-2.07406 12.93824,-4.11466" stroke="#000" fill="#fff"/>
  <path id="svg_59" d="m500.45627,327.34961c0,-3.99907 -8.69094,-7.24097 -19.41176,-7.24097l0,-5.79279l0,0c10.72082,0 19.41176,3.2419 19.41176,7.24098l0,5.79278c0,3.30188 -5.98817,6.18558 -14.55882,7.01105l0,2.89639l-4.85294,-5.56285l4.85294,-6.02271l0,2.89639l0,0c5.77926,-0.55662 10.55072,-2.07406 12.93824,-4.11466" stroke="#000" fill="#fff"/>
  <path transform="rotate(90 176.353 212.401)" stroke="#000" id="svg_60" d="m170.64262,220.05718c-1.34592,-0.42579 -1.16934,-0.68362 2.103,-3.07043c1.65237,-1.20521 3.0043,-2.22632 3.0043,-2.26913c0,-0.0428 -4.56276,-0.07783 -10.13951,-0.07783l-10.13951,0l0,-2.25724l0,-2.25724l10.21987,0c7.88009,0 10.13189,-0.068 9.83567,-0.29701c-0.21131,-0.16335 -1.65274,-1.24734 -3.20318,-2.40885c-2.92261,-2.18947 -2.92169,-2.77664 0.00452,-2.95864c1.45626,-0.09057 24.12854,6.86846 24.90784,7.64522c-7.55194,2.77346 -16.57906,5.67655 -24.89452,8.23626c-0.43846,0 -1.20276,-0.12831 -1.69847,-0.28513l0,0z" fill="#fff"/>
  <path transform="rotate(90 176.942 282.401)" stroke="#000" id="svg_61" d="m171.23086,290.05718c-1.34592,-0.42579 -1.16933,-0.68362 2.103,-3.07043c1.65237,-1.20521 3.0043,-2.22632 3.0043,-2.26912c0,-0.04281 -4.56276,-0.07783 -10.1395,-0.07783l-10.13951,0l0,-2.25724l0,-2.25724l10.21987,0c7.88009,0 10.13189,-0.068 9.83566,-0.29701c-0.21131,-0.16335 -1.65274,-1.24734 -3.20318,-2.40885c-2.92261,-2.18947 -2.92169,-2.77664 0.00451,-2.95864c1.45627,-0.09057 24.12855,6.86847 24.90784,7.64523c-7.55194,2.77345 -16.57907,5.67655 -24.89452,8.23626c-0.43845,0 -1.20275,-0.12831 -1.69846,-0.28513l-0.00001,0z" fill="#fff"/>
  <path transform="rotate(90 275.765 213.578)" stroke="#000" id="svg_62" d="m270.05439,221.23365c-1.34592,-0.42579 -1.16933,-0.68362 2.103,-3.07043c1.65237,-1.20521 3.0043,-2.22632 3.0043,-2.26912c0,-0.04281 -4.56276,-0.07783 -10.1395,-0.07783l-10.13951,0l0,-2.25724l0,-2.25724l10.21987,0c7.88009,0 10.13189,-0.068 9.83566,-0.29701c-0.21131,-0.16335 -1.65274,-1.24734 -3.20318,-2.40885c-2.92261,-2.18947 -2.92169,-2.77664 0.00451,-2.95864c1.45627,-0.09057 24.12855,6.86847 24.90784,7.64523c-7.55194,2.77345 -16.57907,5.67655 -24.89452,8.23626c-0.43845,0 -1.20275,-0.12831 -1.69846,-0.28513l-0.00001,0z" fill="#fff"/>
  <path transform="rotate(90 369.295 213.578)" stroke="#000" id="svg_63" d="m363.58379,221.23365c-1.34592,-0.42579 -1.16933,-0.68362 2.103,-3.07043c1.65237,-1.20521 3.0043,-2.22632 3.0043,-2.26912c0,-0.04281 -4.56276,-0.07783 -10.1395,-0.07783l-10.13951,0l0,-2.25724l0,-2.25724l10.21987,0c7.88009,0 10.13189,-0.068 9.83566,-0.29701c-0.21131,-0.16335 -1.65274,-1.24734 -3.20318,-2.40885c-2.92261,-2.18947 -2.92169,-2.77664 0.00451,-2.95864c1.45627,-0.09057 24.12855,6.86847 24.90784,7.64523c-7.55194,2.77345 -16.57907,5.67655 -24.89452,8.23626c-0.43845,0 -1.20275,-0.12831 -1.69846,-0.28513l-0.00001,0z" fill="#fff"/>
  <path transform="rotate(90 465.765 212.99)" stroke="#000" id="svg_64" d="m460.05439,220.64541c-1.34592,-0.42579 -1.16933,-0.68362 2.103,-3.07043c1.65237,-1.20521 3.0043,-2.22632 3.0043,-2.26912c0,-0.04281 -4.56276,-0.07783 -10.1395,-0.07783l-10.13951,0l0,-2.25724l0,-2.25724l10.21987,0c7.88009,0 10.13189,-0.068 9.83566,-0.29701c-0.21131,-0.16335 -1.65274,-1.24734 -3.20318,-2.40885c-2.92261,-2.18947 -2.92169,-2.77664 0.00451,-2.95864c1.45627,-0.09057 24.12855,6.86847 24.90784,7.64523c-7.55194,2.77345 -16.57907,5.67655 -24.89452,8.23626c-0.43845,0 -1.20275,-0.12831 -1.69846,-0.28513l-0.00001,0z" fill="#fff"/>
  <path transform="rotate(90 178.118 356.519)" stroke="#000" id="svg_65" d="m172.40733,364.17483c-1.34592,-0.42579 -1.16933,-0.68362 2.103,-3.07043c1.65237,-1.20521 3.0043,-2.22632 3.0043,-2.26912c0,-0.04281 -4.56276,-0.07783 -10.1395,-0.07783l-10.13951,0l0,-2.25724l0,-2.25724l10.21987,0c7.88009,0 10.13189,-0.068 9.83566,-0.29701c-0.21131,-0.16335 -1.65274,-1.24734 -3.20318,-2.40885c-2.92261,-2.18947 -2.92169,-2.77664 0.00451,-2.95864c1.45627,-0.09057 24.12855,6.86847 24.90784,7.64523c-7.55194,2.77345 -16.57907,5.67655 -24.89452,8.23626c-0.43845,0 -1.20275,-0.12831 -1.69846,-0.28513l-0.00001,0z" fill="#fff"/>
  <path transform="rotate(90 275.765 358.284)" stroke="#000" id="svg_66" d="m270.05439,365.93953c-1.34592,-0.42579 -1.16933,-0.68362 2.103,-3.07043c1.65237,-1.20521 3.0043,-2.22632 3.0043,-2.26912c0,-0.04281 -4.56276,-0.07783 -10.1395,-0.07783l-10.13951,0l0,-2.25724l0,-2.25724l10.21987,0c7.88009,0 10.13189,-0.068 9.83566,-0.29701c-0.21131,-0.16335 -1.65274,-1.24734 -3.20318,-2.40885c-2.92261,-2.18947 -2.92169,-2.77664 0.00451,-2.95864c1.45627,-0.09057 24.12855,6.86847 24.90784,7.64523c-7.55194,2.77345 -16.57907,5.67655 -24.89452,8.23626c-0.43845,0 -1.20275,-0.12831 -1.69846,-0.28513l-0.00001,0z" fill="#fff"/>
  <path transform="rotate(90 368.707 358.284)" stroke="#000" id="svg_67" d="m362.99556,365.93953c-1.34592,-0.42579 -1.16933,-0.68362 2.103,-3.07043c1.65237,-1.20521 3.0043,-2.22632 3.0043,-2.26912c0,-0.04281 -4.56276,-0.07783 -10.1395,-0.07783l-10.13951,0l0,-2.25724l0,-2.25724l10.21987,0c7.88009,0 10.13189,-0.068 9.83566,-0.29701c-0.21131,-0.16335 -1.65274,-1.24734 -3.20318,-2.40885c-2.92261,-2.18947 -2.92169,-2.77664 0.00451,-2.95864c1.45627,-0.09057 24.12855,6.86847 24.90784,7.64523c-7.55194,2.77345 -16.57907,5.67655 -24.89452,8.23626c-0.43845,0 -1.20275,-0.12831 -1.69846,-0.28513l-0.00001,0z" fill="#fff"/>
  <path transform="rotate(90 275.177 284.754)" stroke="#000" id="svg_68" d="m269.46615,292.41012c-1.34592,-0.42579 -1.16933,-0.68362 2.103,-3.07043c1.65237,-1.20521 3.0043,-2.22632 3.0043,-2.26912c0,-0.04281 -4.56276,-0.07783 -10.1395,-0.07783l-10.13951,0l0,-2.25724l0,-2.25724l10.21987,0c7.88009,0 10.13189,-0.068 9.83566,-0.29701c-0.21131,-0.16335 -1.65274,-1.24734 -3.20318,-2.40885c-2.92261,-2.18947 -2.92169,-2.77664 0.00451,-2.95864c1.45627,-0.09057 24.12855,6.86847 24.90784,7.64523c-7.55194,2.77345 -16.57907,5.67655 -24.89452,8.23626c-0.43845,0 -1.20275,-0.12831 -1.69846,-0.28513l-0.00001,0z" fill="#fff"/>
  <path transform="rotate(90 369.295 285.343)" stroke="#000" id="svg_69" d="m363.5838,292.99835c-1.34592,-0.42579 -1.16933,-0.68362 2.103,-3.07043c1.65237,-1.20521 3.0043,-2.22632 3.0043,-2.26912c0,-0.04281 -4.56276,-0.07783 -10.1395,-0.07783l-10.13951,0l0,-2.25724l0,-2.25724l10.21987,0c7.88009,0 10.13189,-0.068 9.83566,-0.29701c-0.21131,-0.16335 -1.65274,-1.24734 -3.20318,-2.40885c-2.92261,-2.18947 -2.92169,-2.77664 0.00451,-2.95864c1.45627,-0.09057 24.12855,6.86847 24.90784,7.64523c-7.55194,2.77345 -16.57907,5.67655 -24.89452,8.23626c-0.43845,0 -1.20275,-0.12831 -1.69846,-0.28513l-0.00001,0z" fill="#fff"/>
  <path transform="rotate(90 465.177 282.401)" stroke="#000" id="svg_70" d="m459.46614,290.05718c-1.34592,-0.42579 -1.16933,-0.68362 2.103,-3.07043c1.65237,-1.20521 3.0043,-2.22632 3.0043,-2.26912c0,-0.04281 -4.56276,-0.07783 -10.1395,-0.07783l-10.13951,0l0,-2.25724l0,-2.25724l10.21987,0c7.88009,0 10.13189,-0.068 9.83566,-0.29701c-0.21131,-0.16335 -1.65274,-1.24734 -3.20318,-2.40885c-2.92261,-2.18947 -2.92169,-2.77664 0.00451,-2.95864c1.45627,-0.09057 24.12855,6.86847 24.90784,7.64523c-7.55194,2.77345 -16.57907,5.67655 -24.89452,8.23626c-0.43845,0 -1.20275,-0.12831 -1.69846,-0.28513l-0.00001,0z" fill="#fff"/>
  <path transform="rotate(90 178.118 424.166)" stroke="#000" id="svg_71" d="m172.40733,431.82189c-1.34592,-0.42579 -1.16933,-0.68362 2.103,-3.07043c1.65237,-1.20521 3.0043,-2.22632 3.0043,-2.26912c0,-0.04281 -4.56276,-0.07783 -10.1395,-0.07783l-10.13951,0l0,-2.25724l0,-2.25724l10.21987,0c7.88009,0 10.13189,-0.068 9.83566,-0.29701c-0.21131,-0.16335 -1.65274,-1.24734 -3.20318,-2.40885c-2.92261,-2.18947 -2.92169,-2.77664 0.00451,-2.95864c1.45627,-0.09057 24.12855,6.86847 24.90784,7.64523c-7.55194,2.77345 -16.57907,5.67655 -24.89452,8.23626c-0.43845,0 -1.20275,-0.12831 -1.69846,-0.28513l-0.00001,0z" fill="#fff"/>
  <path transform="rotate(90 177.53 497.107)" stroke="#000" id="svg_72" d="m171.81909,504.76305c-1.34592,-0.42579 -1.16933,-0.68362 2.103,-3.07043c1.65237,-1.20521 3.0043,-2.22632 3.0043,-2.26912c0,-0.04281 -4.56276,-0.07783 -10.1395,-0.07783l-10.13951,0l0,-2.25724l0,-2.25724l10.21987,0c7.88009,0 10.13189,-0.068 9.83566,-0.29701c-0.21131,-0.16335 -1.65274,-1.24734 -3.20318,-2.40885c-2.92261,-2.18947 -2.92169,-2.77664 0.00451,-2.95864c1.45627,-0.09057 24.12855,6.86847 24.90784,7.64523c-7.55194,2.77345 -16.57907,5.67655 -24.89452,8.23626c-0.43845,0 -1.20275,-0.12831 -1.69846,-0.28513l-0.00001,0z" fill="#fff"/>
  <path transform="rotate(90 275.177 428.284)" stroke="#000" id="svg_73" d="m269.46615,435.93953c-1.34592,-0.42579 -1.16933,-0.68362 2.103,-3.07043c1.65237,-1.20521 3.0043,-2.22632 3.0043,-2.26912c0,-0.04281 -4.56276,-0.07783 -10.1395,-0.07783l-10.13951,0l0,-2.25724l0,-2.25724l10.21987,0c7.88009,0 10.13189,-0.068 9.83566,-0.29701c-0.21131,-0.16335 -1.65274,-1.24734 -3.20318,-2.40885c-2.92261,-2.18947 -2.92169,-2.77664 0.00451,-2.95864c1.45627,-0.09057 24.12855,6.86847 24.90784,7.64523c-7.55194,2.77345 -16.57907,5.67655 -24.89452,8.23626c-0.43845,0 -1.20275,-0.12831 -1.69846,-0.28513l-0.00001,0z" fill="#fff"/>
  <path transform="rotate(90 368.118 428.872)" stroke="#000" id="svg_74" d="m362.40733,436.52776c-1.34592,-0.42579 -1.16933,-0.68362 2.103,-3.07043c1.65237,-1.20521 3.0043,-2.22632 3.0043,-2.26912c0,-0.04281 -4.56276,-0.07783 -10.1395,-0.07783l-10.13951,0l0,-2.25724l0,-2.25724l10.21987,0c7.88009,0 10.13189,-0.068 9.83566,-0.29701c-0.21131,-0.16335 -1.65274,-1.24734 -3.20318,-2.40885c-2.92261,-2.18947 -2.92169,-2.77664 0.00451,-2.95864c1.45627,-0.09057 24.12855,6.86847 24.90784,7.64523c-7.55194,2.77345 -16.57907,5.67655 -24.89452,8.23626c-0.43845,0 -1.20275,-0.12831 -1.69846,-0.28513l-0.00001,0z" fill="#fff"/>
  <path transform="rotate(90 368.707 497.695)" stroke="#000" id="svg_75" d="m362.99556,505.3513c-1.34592,-0.42579 -1.16933,-0.68362 2.103,-3.07043c1.65237,-1.20521 3.0043,-2.22632 3.0043,-2.26912c0,-0.04281 -4.56276,-0.07783 -10.1395,-0.07783l-10.13951,0l0,-2.25724l0,-2.25724l10.21987,0c7.88009,0 10.13189,-0.068 9.83566,-0.29701c-0.21131,-0.16335 -1.65274,-1.24734 -3.20318,-2.40885c-2.92261,-2.18947 -2.92169,-2.77664 0.00451,-2.95864c1.45627,-0.09057 24.12855,6.86847 24.90784,7.64523c-7.55194,2.77345 -16.57907,5.67655 -24.89452,8.23626c-0.43845,0 -1.20275,-0.12831 -1.69846,-0.28513l-0.00001,0z" fill="#fff"/>
  <line stroke="#000" id="svg_79" y2="536.6507" x2="124.93404" y1="536.06246" x1="156.59832" fill="none"/>
  <line id="svg_80" y2="536.79417" x2="124.83361" y1="187.97064" x1="126.01008" stroke="#000" fill="none"/>
  <line stroke="#000" id="svg_82" y2="187.68371" x2="125.82357" y1="187.58326" x1="155.27838" fill="none"/>
  <line id="svg_84" y2="187.8463" x2="155.1636" y1="182.48045" x1="148.82213" stroke="#000" fill="none"/>
  <line stroke="#000" id="svg_85" y2="188.0902" x2="155.1636" y1="192.96825" x1="147.84652" fill="none"/>
  <text xml:space="preserve" text-anchor="start" font-family="Arial" font-size="8" stroke-width="0" id="svg_86" y="168.09448" x="165.70236" stroke="#000" fill="#000000">预处理</text>
  <text xml:space="preserve" text-anchor="start" font-family="Arial" font-size="8" stroke-width="0" id="svg_87" y="169.52989" x="264.74542" stroke="#000" fill="#000000">预处理</text>
  <text xml:space="preserve" text-anchor="start" font-family="Arial" font-size="8" stroke-width="0" id="svg_88" y="169.05142" x="357.56839" stroke="#000" fill="#000000">预处理</text>
  <text xml:space="preserve" text-anchor="start" font-family="Arial" font-size="8" stroke-width="0" id="svg_89" y="168.09448" x="454.69757" stroke="#000" fill="#000000">预处理</text>
  <text xml:space="preserve" text-anchor="start" font-family="Arial" font-size="8" stroke-width="0" id="svg_90" y="185.79783" x="165.22389" stroke="#000" fill="#000000">定时</text>
  <text xml:space="preserve" text-anchor="start" font-family="Arial" font-size="8" stroke-width="0" id="svg_91" y="186.2763" x="265.70236" stroke="#000" fill="#000000">定时</text>
  <text xml:space="preserve" text-anchor="start" font-family="Arial" font-size="8" stroke-width="0" id="svg_92" y="187.71171" x="360.91768" stroke="#000" fill="#000000">定时</text>
  <text xml:space="preserve" text-anchor="start" font-family="Arial" font-size="8" stroke-width="0" id="svg_93" y="185.79783" x="459.0038" stroke="#000" fill="#000000">定时</text>
  <text xml:space="preserve" text-anchor="start" font-family="Arial" font-size="18" stroke-width="0" id="svg_94" y="189.14711" x="56.13298" stroke="#000" fill="#000000">步骤1</text>
  <text transform="matrix(1 0 0 1 0 0)" style="cursor: move;" xml:space="preserve" text-anchor="start" font-family="Arial" font-size="18" stroke-width="0" id="svg_95" y="259.96051" x="56.13298" stroke="#000" fill="#000000">步骤2</text>
  <text style="cursor: move;" xml:space="preserve" text-anchor="start" font-family="Arial" font-size="18" stroke-width="0" id="svg_96" y="325.98922" x="56.13298" stroke="#000" fill="#000000">步骤3</text>
  <text style="cursor: move;" xml:space="preserve" text-anchor="start" font-family="Arial" font-size="18" stroke-width="0" id="svg_97" y="402.54424" x="56.13298" stroke="#000" fill="#000000">步骤3</text>
  <text style="cursor: move;" xml:space="preserve" text-anchor="start" font-family="Arial" font-size="18" stroke-width="0" id="svg_98" y="473.35765" x="56.13298" stroke="#000" fill="#000000">步骤4</text>
  <text xml:space="preserve" text-anchor="start" font-family="Arial" font-size="18" stroke-width="0" id="svg_99" y="539.38634" x="56.13298" stroke="#000" fill="#000000">步骤5</text>
  <text xml:space="preserve" text-anchor="start" font-family="Arial" font-size="18" stroke-width="0" id="svg_100" y="125.03228" x="152.30523" stroke="#000" fill="#000000">事情A</text>
  <text xml:space="preserve" text-anchor="start" font-family="Arial" font-size="18" stroke-width="0" id="svg_101" y="125.03228" x="252.7837" stroke="#000" fill="#000000">事情B</text>
  <text style="cursor: move;" xml:space="preserve" text-anchor="start" font-family="Arial" font-size="18" stroke-width="0" id="svg_102" y="125.03228" x="346.56361" stroke="#000" fill="#000000">事情C</text>
  <text xml:space="preserve" text-anchor="start" font-family="Arial" font-size="18" stroke-width="0" id="svg_103" y="125.03228" x="440.34352" stroke="#000" fill="#000000">事情D</text>
  <rect id="svg_105" height="34.85714" width="45.71429" y="648.53377" x="103.86662" stroke="#000" fill="#fff"/>
  <rect id="svg_106" height="34.85714" width="45.71429" y="648.53377" x="132.57476" stroke="#000" fill="#fff"/>
  <rect stroke="#000" id="svg_107" height="34.85714" width="42.365" y="648.53377" x="164.63217" fill="#fff"/>
  <rect id="svg_108" height="34.85714" width="45.71429" y="648.53377" x="190.94796" stroke="#000" fill="#fff"/>
  <rect id="svg_109" height="34.85714" width="45.71429" y="648.53377" x="219.65609" stroke="#000" fill="#fff"/>
  <rect stroke="#000" id="svg_110" height="34.85714" width="42.365" y="648.53377" x="251.71351" fill="#fff"/>
  <rect id="svg_111" height="34.85714" width="45.71429" y="648.53377" x="281.37858" stroke="#000" fill="#fff"/>
  <rect id="svg_112" height="34.85714" width="45.71429" y="648.53377" x="310.08672" stroke="#000" fill="#fff"/>
  <rect stroke="#000" id="svg_113" height="34.85714" width="42.365" y="648.53377" x="342.14414" fill="#fff"/>
  <rect id="svg_114" height="34.85714" width="45.71429" y="648.53377" x="375.63695" stroke="#000" fill="#fff"/>
  <rect id="svg_115" height="34.85714" width="45.71429" y="648.53377" x="404.34508" stroke="#000" fill="#fff"/>
  <rect stroke="#000" id="svg_116" height="34.85714" width="42.365" y="648.53377" x="436.4025" fill="#fff"/>
  <path id="svg_119" d="m524.81935,641.17523c0,-19.2668 -19.27962,-34.88565 -43.06222,-34.88565l0,-27.90852l0,0c23.7826,0 43.06222,15.61883 43.06222,34.88565l0,27.90852c0,15.9078 -13.2839,29.80093 -32.29667,33.77788l0,13.95426l-10.76556,-26.80075l10.76556,-29.01628l0,13.95426l0,0c12.82045,-2.68168 23.40526,-9.99241 28.70163,-19.82362" stroke="#000" fill="#fff"/>
  <path stroke="#000" id="svg_121" d="m63.09686,618.44668c0,18.68296 17.99429,33.8285 40.19136,33.8285l0,27.06281l0,0c-22.19708,0 -40.19136,-15.14553 -40.19136,-33.82851l0,-27.0628c0,-15.42575 12.39829,-28.89789 30.14352,-32.75432l0,-13.5314l10.04784,25.98861l-10.04784,28.137l0,-13.53141l0,0c-11.96574,2.60042 -21.84488,9.6896 -26.78815,19.22291" fill="#fff"/>
  <text xml:space="preserve" text-anchor="start" font-family="Arial" font-size="18" stroke-width="0" id="svg_122" y="672.264" x="225.71603" stroke="#000" fill="#000000">数据：事件队列</text>
  <text xml:space="preserve" text-anchor="start" font-family="Arial" font-size="12" stroke-width="0" id="svg_123" y="331.26063" x="505.49807" stroke="#000" fill="#000000">驻留</text>
  <text xml:space="preserve" text-anchor="start" font-family="Arial" font-size="12" stroke-width="0" id="svg_124" y="259.98036" x="404.35737" stroke="#000" fill="#000000">驻留</text>
  <text xml:space="preserve" text-anchor="start" font-family="Arial" font-size="12" stroke-width="0" id="svg_125" y="258.59628" x="307.12554" stroke="#000" fill="#000000">驻留</text>
  <text xml:space="preserve" text-anchor="start" font-family="Arial" font-size="12" stroke-width="0" id="svg_126" y="258.25025" x="209.20169" stroke="#000" fill="#000000">驻留</text>
  <text xml:space="preserve" text-anchor="start" font-family="Arial" font-size="12" stroke-width="0" id="svg_127" y="191.46826" x="308.50962" stroke="#000" fill="#000000">驻留</text>
  <text xml:space="preserve" text-anchor="start" font-family="Arial" font-size="12" stroke-width="0" id="svg_128" y="190.08418" x="211.2778" stroke="#000" fill="#000000">驻留</text>
  <text xml:space="preserve" text-anchor="start" font-family="Arial" font-size="12" stroke-width="0" id="svg_129" y="634.4309" x="69.75955" stroke="#000" fill="#000000">取走事件并删除</text>
  <text xml:space="preserve" text-anchor="start" font-family="Arial" font-size="12" stroke-width="0" id="svg_130" y="627.85651" x="487.75258" stroke="#000" fill="#000000">放入</text>
  <text transform="matrix(0.63202 0 0 1 28.8303 0)" stroke="#000" xml:space="preserve" text-anchor="start" font-family="Arial" font-size="18" stroke-width="0" id="svg_139" y="123.28929" x="85.53955" fill="#000000">事情列表：</text>
  <text transform="matrix(0.687629 0 0 2.35322 138.746 -476.895)" stroke="#000" xml:space="preserve" text-anchor="start" font-family="Arial" font-size="12" stroke-width="0" id="svg_141" y="363.30981" x="441.38796" fill="#000000">事情D步骤列表</text>
 </g>
</svg>